<svg width="104" height="104" viewBox="0 0 104 104" fill="none" xmlns="http://www.w3.org/2000/svg">
<path d="M75.593 46.0755C75.593 65.0091 51.2499 81.2378 51.2499 81.2378C51.2499 81.2378 26.9067 65.0091 26.9067 46.0755C26.9067 39.6193 29.4715 33.4276 34.0367 28.8623C38.6019 24.2971 44.7937 21.7324 51.2499 21.7324C57.7061 21.7324 63.8978 24.2971 68.4631 28.8623C73.0283 33.4276 75.593 39.6193 75.593 46.0755Z" stroke="white" stroke-width="5.40959" stroke-linecap="round" stroke-linejoin="round"/>
<path d="M51.2496 54.1899C55.7311 54.1899 59.364 50.5569 59.364 46.0755C59.364 41.5941 55.7311 37.9611 51.2496 37.9611C46.7682 37.9611 43.1353 41.5941 43.1353 46.0755C43.1353 50.5569 46.7682 54.1899 51.2496 54.1899Z" stroke="white" stroke-width="5.40959" stroke-linecap="round" stroke-linejoin="round"/>
</svg>
