<svg width="104" height="104" viewBox="0 0 104 104" fill="none" xmlns="http://www.w3.org/2000/svg">
<path d="M68.6466 30.0114H34.8407C32.1734 30.0114 30.0112 32.1736 30.0112 34.8409V68.6468C30.0112 71.3141 32.1734 73.4763 34.8407 73.4763H68.6466C71.3139 73.4763 73.4761 71.3141 73.4761 68.6468V34.8409C73.4761 32.1736 71.3139 30.0114 68.6466 30.0114Z" stroke="#4D80C9" stroke-width="4.82943" stroke-linecap="round" stroke-linejoin="round"/>
<path d="M43.2922 46.9144C45.2927 46.9144 46.9143 45.2928 46.9143 43.2924C46.9143 41.292 45.2927 39.6703 43.2922 39.6703C41.2918 39.6703 39.6702 41.292 39.6702 43.2924C39.6702 45.2928 41.2918 46.9144 43.2922 46.9144Z" stroke="#4D80C9" stroke-width="4.82943" stroke-linecap="round" stroke-linejoin="round"/>
<path d="M73.4762 58.988L61.4027 46.9144L34.8408 73.4763" stroke="#4D80C9" stroke-width="4.82943" stroke-linecap="round" stroke-linejoin="round"/>
</svg>
